<?xml version="1.0" encoding="utf-8"?>
<!-- Generator: Adobe Illustrator 22.0.0, SVG Export Plug-In . SVG Version: 6.00 Build 0)  -->
<svg version="1.1" id="Layer_1" xmlns="http://www.w3.org/2000/svg" xmlns:xlink="http://www.w3.org/1999/xlink" x="0px" y="0px"
	 viewBox="0 0 516.6 389.6" style="enable-background:new 0 0 516.6 389.6;" xml:space="preserve">
<style type="text/css">
	.st0{opacity:0.42;}
	.st1{fill:#99AEDA;stroke:#99AEDA;stroke-miterlimit:10;}
	.st2{fill:#003C7A;}
	.st3{fill:#00ACAF;}
	.st4{fill:#606161;}
</style>
<g>
	<g class="st0">
		<path class="st1" d="M380.4,359c-36.8,30.9-89.6,33.6-145,10.8c-31.5-13-62.4-27.4-92.9-42.7C83.6,297.6,61,244.2,78.4,179.5
			c4.5-16.7,8.5-33.6,12-50.5c21-101.5,129.3-162.4,222.8-104.2c3.9,2.4,10.1,2.2,15,1.7c5.3-0.5,10.4-3.1,15.6-4.4
			c45.9-11.2,80.4,5.1,100.5,47.7c17.3,36.7,16.9,74.6,7.7,113.3c-2.2,9.3-3.5,19.2-2.9,28.7C452.1,264.7,431.3,315,380.4,359z
			 M385.7,207.2c0.1-8,0.2-13.1,0.3-18.2c0.6-43-9.7-83-34.2-118.7c-17.4-25.3-38-30.3-65.1-16.8c-4,2-8.3,3.7-12.4,5.5
			c-0.4-0.7-0.8-1.3-1.2-2c7.9-5.5,15.7-11,25.4-17.7c-32.1-8.8-61.7-6-90.4,6c-49.7,20.8-82.1,59.8-106.8,105.6
			c-5.5,10.1-7.8,24-6.4,35.5c6.6,53.6,34.1,96.2,72.7,133c14.9,14.2,31.4,20,51.2,20.7c80.9,2.7,144.4-30.6,192.2-94.3
			c10.8-14.4,24.5-32.9,23.5-48.6c-3-47.2-29.3-84.4-65.9-119.6C393.8,150.1,397.7,178.4,385.7,207.2z M436.4,229.7
			c-54,81.9-129.2,121.9-227.3,119.7c46.4,28.1,94.6,41.6,146.1,15C409.6,336.3,433.2,288.7,436.4,229.7z M445.1,168
			c5.8-37.4,3.7-75.5-20.7-109.3c-20.9-28.9-59.1-37.6-91.3-23.3c21.7,18.9,46.5,36.1,65.3,58.4C417.4,116.1,430.1,143.5,445.1,168z
			 M96.4,133.2c60.8-93.7,129.1-120,202.9-105.5C228.4-27.1,110.8,32.6,96.4,133.2z M168.1,327.8C125.2,289,98.5,242,87.8,182.7
			C66.5,246.7,106.2,314.6,168.1,327.8z"/>
	</g>
	<g>
		<path class="st2" d="M85.9,125c0,15.6-2.4,26.5-7.2,32.8c-1.2,1.6-4.4,3-9.5,4.3c-4.4,1.1-8,1.7-10.6,1.7
			c-5.7,0-14.9-2.4-27.5-7.1S10.2,147.6,6,144v-2.9c1-0.1,1.9-0.6,2.8-1.4c6.8,4.6,14.9,8.7,24.3,12.3c10.5,4,19.2,6,26.1,6
			c6.8,0,11.6-1.5,14.6-4.4c3-2.9,4.8-8.1,5.5-15.5c0.5-5.8,0.8-12,0.8-18.6c0-1.2-0.1-5.1-0.3-11.8c-0.2-6.6-0.3-10.5-0.3-11.7
			c0-1.1,0.5-2.3,1.6-3.4c1.5,0.1,2.4,0.8,2.8,2.2c0,0.1,0.2,2.6,0.6,7.6C85.4,114.7,85.9,122.2,85.9,125z"/>
		<path class="st2" d="M145.5,146.1c0,3.4-0.7,6.4-2.2,8.8c-1.3,2.2-6,4.4-14.1,6.6c-7.2,1.9-12.6,2.9-16.4,2.9c-4.4,0-8.7-1-13-3.1
			c-5.2-2.6-7.8-5.8-7.8-9.6c0-1.7,1-3.4,2.9-5.2c1.7-1.3,4.4-3.6,7.9-7.1c2.3-2.8,6.6-5.1,12.8-6.9c5.2-1.5,10.1-2.2,14.6-2.2
			c1.2,0,3.1,0.5,5.5,1.6c2.4,1.1,4.1,2.2,5,3.1c0.9,1,1.9,2.8,3,5.4C144.9,142.9,145.5,144.9,145.5,146.1z M140.6,145.7
			c0-2.4-1.4-4.7-4.3-6.8c-2.6-2-5.3-3-7.8-3c-0.5,0-4.2,0.7-11.3,2.1c-2.7,0.5-5.2,1.6-7.4,3.1c-7.6,5.4-11.4,9.2-11.4,11.2
			c0,1.7,2.1,3.3,6.2,4.7c3.5,1.2,6.4,1.8,8.7,1.8c3.3,0,8-0.7,14-2c5.5-1.2,9.4-3.1,11.7-5.6C140,150.2,140.6,148.3,140.6,145.7z"
			/>
		<path class="st2" d="M184.3,152.1c0,2.7-0.9,4.6-2.7,5.5c-1.3,0.6-4.5,1.7-9.7,3.3c-5.3,1.6-8.6,2.5-9.8,2.5
			c-0.2,0-0.5-0.1-0.8-0.3c-0.3-0.2-0.6-0.3-0.7-0.3c-0.7,0-2.1,1-4.1,3.1c-1.4-1.1-2.1-1.9-2.1-2.5c0-3.6,5.4-6.5,16.3-8.7
			c0.7-0.2,1.9-0.4,3.8-0.7c0.5-0.4,1.3-1.1,2.4-2.1c-1-1.7-2.6-3-4.8-3.8c-2.2-0.7-6.1-2.2-11.7-4.4c-5.6-2.2-8.4-4.6-8.4-7.3
			c0-3.5,3.5-5.3,10.5-5.3c2.7,0,6.1,0.3,10.3,0.9c4.9,0.7,8.1,1.5,9.6,2.4l-0.8,1.3l-17.9,0.9c-0.1,0.1-0.5,0.5-1.2,1l12.9,5.8
			C181.3,145.8,184.3,148.8,184.3,152.1z"/>
		<path class="st2" d="M239,172.1l-1.5,1.4c-4.1-1.6-6.1-4.4-6.1-8.2c0-0.3,0-1.2,0.1-2.6c0.1-1.5,0.1-2.3,0.1-2.5
			c0-4.3-2.4-6.5-7.1-6.5h-1.4c-3.5,0-9.9,1.1-19,3.3c-4.6,1.1-6.9,1.6-7.1,1.6c-2.2,0-4.8-1.1-7.7-3.2l3.8-41.5
			c1.7-18.9,4.4-32.5,8.1-40.7c0.8,0.2,2,0.4,3.6,0.7c-0.9,2.9-2.1,9.5-3.7,19.7c-1.5,9.5-2.4,16.1-2.8,19.9
			c-0.7,7.5-1.4,15.5-2,23.9c-0.5,7.1-0.8,11.1-0.8,12.1v0.7c0,0.9,0.1,1.5,0.4,1.7c0.3,0.2,1,0.3,2.1,0.3c0.3,0,1.7-0.3,4-1
			c0.8-0.1,5.8-0.8,15-2.1c5.8-0.8,8.9-1.3,9.2-1.3c0.1,0,0.6,0,1.4,0c0.8,0,1.2,0,1.4,0c1,0,1.8,0.1,2.4,0.4
			c2.9,1.2,4.8,3.7,5.5,7.5c0.3,1.5,0.4,4.8,0.4,9.9c0,1.8,0.6,3.2,1.7,4.2V172.1z"/>
		<path class="st2" d="M291.6,136.5c0,1.4-2.4,4.7-7.3,10.1c-4.3,4.8-7.5,7.9-9.6,9.5c-1.1,0.8-3.3,2.4-6.8,5c-1.5,1-3.7,2-6.7,3
			c-3.1,1-5.5,1.5-7.2,1.5c-3.3,0-6-2.1-8.2-6.3c-1.8-3.4-2.7-7-2.7-10.8c0-3.1,0.6-6.3,1.9-9.5c0.5,0,1-0.2,1.5-0.7
			c0.6,0.4,1.4,1,2.5,2c-0.3,2.5-0.5,4.8-0.5,6.7c0,7.8,2.5,11.7,7.6,11.7c4.9,0,10.8-3,17.6-9.1c1.1-1,6.3-5.8,15.5-14.5h0.8
			C291,135.2,291.6,135.6,291.6,136.5z"/>
		<path class="st2" d="M338.2,163.6c-0.7,0.9-1.4,1.4-2.2,1.4c-0.5,0-2.3-1.5-5.2-4.6c-3-3.1-4.9-4.7-5.9-4.7
			c0,0.1-3.5,1.4-10.5,4.1c-7.2,2.7-11.8,4-13.7,4c-1.6,0-3.4-0.8-5.4-2.4c-2-1.6-2.9-3.1-2.9-4.4c0-3.6,3.9-7.7,11.7-12.5
			c7.3-4.5,13-6.8,16.8-6.8c1.6,0,3.1,0.9,4.4,2.8v2.1c-0.6,0.9-1.4,1.4-2.2,1.4c-0.2,0-0.7-0.2-1.7-0.6c-1-0.4-1.5-0.6-1.7-0.6
			c-1.3,0-4.2,1.3-8.8,4c-4.4,2.5-7.3,4.3-8.8,5.6c-1.5,1.3-2.4,2.8-2.9,4.4c1.1,1.1,2.5,1.6,4,1.6c0.8,0,4.7-1.3,11.6-4
			c6.9-2.7,11.1-4.1,12.6-4.1c2.1,0,3.7,0.5,4.6,1.6c0.2,0.3,1,1.7,2.5,4.4c1.1,2,2.4,3.8,3.9,5.4V163.6z"/>
	</g>
	<g>
		<path class="st3" d="M43.7,179.9c0-1,0.8-1.9,1.8-1.9h23.9c19.4,0,35.4,15.8,35.4,35.2c0,19.5-15.9,35.4-35.4,35.4H45.5
			c-1,0-1.8-0.9-1.8-1.9V179.9z M68.1,236.2c13.1,0,22.7-9.9,22.7-23.1c0-13.1-9.6-23-22.7-23H56.7v46H68.1z"/>
		<path class="st3" d="M118,179.9c0-1,0.8-1.9,1.9-1.9h41c1.1,0,1.9,0.9,1.9,1.9v8.3c0,1-0.8,1.9-1.9,1.9h-29.8v16.5H156
			c1,0,1.9,0.9,1.9,1.9v8.4c0,1.1-0.9,1.9-1.9,1.9h-24.9v17.6h29.8c1.1,0,1.9,0.9,1.9,1.9v8.3c0,1-0.8,1.9-1.9,1.9h-41
			c-1.1,0-1.9-0.9-1.9-1.9V179.9z"/>
		<path class="st3" d="M208.1,177c10.2,0,17.5,3.2,24.4,9.4c0.9,0.8,0.9,2,0.1,2.8l-6.1,6.3c-0.7,0.8-1.7,0.8-2.5,0
			c-4.2-3.7-9.9-5.9-15.5-5.9c-12.9,0-22.5,10.8-22.5,23.5c0,12.6,9.7,23.3,22.6,23.3c6,0,11.2-2.3,15.4-5.7c0.8-0.7,1.9-0.6,2.5,0
			l6.2,6.4c0.8,0.7,0.6,2-0.1,2.7c-6.8,6.6-15.5,9.8-24.5,9.8c-20.1,0-36.4-16-36.4-36.2C171.8,193.2,188,177,208.1,177z"/>
		<path class="st3" d="M245.8,180.4c0-1.3,1-2.4,2.4-2.4h8.9c1.3,0,2.4,1.1,2.4,2.4v27.2l25.4-28.6c0.4-0.5,1-1,1.9-1h10.1
			c1.9,0,2.9,2.1,1.6,3.6l-26.3,29.6l28.2,33.7c1,1.3,0.2,3.5-1.8,3.5h-11c-1,0-1.6-0.4-1.8-0.7l-26.3-32.4v30.7
			c0,1.3-1.1,2.4-2.4,2.4h-8.9c-1.4,0-2.4-1.1-2.4-2.4V180.4z"/>
		<path class="st3" d="M308.7,245.9l31.3-67.8c0.3-0.6,0.8-1.1,1.7-1.1h1c1,0,1.4,0.5,1.7,1.1l31,67.8c0.6,1.3-0.2,2.6-1.7,2.6H365
			c-1.5,0-2.2-0.6-2.9-2l-4.9-10.9H327l-4.9,10.9c-0.4,1-1.3,2-2.9,2h-8.8C308.9,248.5,308.1,247.2,308.7,245.9z M352.2,224.5
			l-10.1-22.2h-0.3l-9.9,22.2H352.2z"/>
		<path class="st3" d="M384.6,179.9c0-1,0.8-1.9,1.9-1.9h28.8c12.1,0,22,9.7,22,21.7c0,9.3-6.1,16.8-14.9,20.3l13.8,25.6
			c0.7,1.3,0,2.9-1.7,2.9h-10.6c-0.9,0-1.4-0.5-1.6-0.9l-13.4-26.7h-11.2v25.7c0,1-0.9,1.9-1.9,1.9h-9.3c-1.1,0-1.9-0.9-1.9-1.9
			V179.9z M414.2,210.2c5.3,0,10-4.6,10-10.3c0-5.3-4.6-9.8-10-9.8h-16.4v20H414.2z"/>
		<path class="st3" d="M451.7,179.9c0-1,0.8-1.9,1.8-1.9h23.9c19.4,0,35.4,15.8,35.4,35.2c0,19.5-15.9,35.4-35.4,35.4h-23.9
			c-1,0-1.8-0.9-1.8-1.9V179.9z M476.2,236.2c13.1,0,22.7-9.9,22.7-23.1c0-13.1-9.6-23-22.7-23h-11.5v46H476.2z"/>
	</g>
	<g>
		<path class="st4" d="M244.9,267.6h10.8c2,0,4.1,0.3,6.1,1c2,0.7,3.9,1.7,5.5,3.1c1.6,1.4,3,3.1,4,5.1c1,2,1.5,4.4,1.5,7.1
			c0,2.7-0.5,5.1-1.5,7.1c-1,2-2.3,3.7-4,5.1c-1.6,1.4-3.5,2.4-5.5,3.1c-2,0.7-4.1,1-6.1,1h-10.8V267.6z M248.2,297.2h6.6
			c2.5,0,4.6-0.4,6.4-1.2c1.8-0.8,3.3-1.8,4.5-3c1.2-1.2,2.1-2.7,2.7-4.3c0.6-1.6,0.9-3.2,0.9-4.9c0-1.7-0.3-3.3-0.9-4.9
			c-0.6-1.6-1.5-3-2.7-4.3c-1.2-1.2-2.7-2.2-4.5-3c-1.8-0.8-4-1.2-6.4-1.2h-6.6V297.2z"/>
		<path class="st4" d="M296.9,297.2h17.4v2.9h-20.8v-32.6h20.2v2.9h-16.9v11.2h15.8v2.9h-15.8V297.2z"/>
		<path class="st4" d="M350.4,272.8c-0.7-1-1.6-1.8-2.7-2.4c-1.1-0.6-2.4-0.9-4-0.9c-0.8,0-1.6,0.1-2.4,0.4
			c-0.8,0.2-1.6,0.6-2.3,1.1c-0.7,0.5-1.2,1.1-1.6,1.9c-0.4,0.8-0.6,1.7-0.6,2.7c0,1,0.2,1.9,0.6,2.6c0.4,0.7,0.9,1.3,1.6,1.7
			c0.7,0.5,1.4,0.9,2.2,1.2c0.8,0.3,1.7,0.6,2.6,0.9c1.1,0.4,2.3,0.8,3.4,1.2s2.2,1,3.1,1.7c0.9,0.7,1.7,1.6,2.2,2.6
			c0.6,1.1,0.9,2.4,0.9,4c0,1.6-0.3,3-0.9,4.2c-0.6,1.2-1.4,2.2-2.4,2.9c-1,0.8-2.1,1.3-3.4,1.7c-1.3,0.4-2.6,0.6-3.8,0.6
			c-1,0-2-0.1-2.9-0.3c-1-0.2-1.9-0.5-2.8-0.9c-0.9-0.4-1.7-0.9-2.5-1.5c-0.8-0.6-1.4-1.3-2-2.1l2.9-2.1c0.7,1.2,1.7,2.1,3,2.9
			c1.3,0.8,2.8,1.2,4.5,1.2c0.8,0,1.7-0.1,2.5-0.4c0.9-0.3,1.6-0.7,2.3-1.2c0.7-0.5,1.3-1.2,1.7-2c0.4-0.8,0.7-1.7,0.7-2.7
			c0-1.1-0.2-2.1-0.7-2.8c-0.4-0.8-1-1.4-1.8-1.9s-1.6-0.9-2.5-1.3c-1-0.3-1.9-0.7-3-1c-1.1-0.3-2.1-0.7-3.2-1.2c-1-0.4-2-1-2.8-1.7
			c-0.8-0.7-1.5-1.5-2-2.6c-0.5-1-0.8-2.3-0.8-3.7c0-1.6,0.3-2.9,0.9-4c0.6-1.1,1.5-2.1,2.5-2.8c1-0.7,2.1-1.3,3.4-1.6
			c1.2-0.3,2.4-0.5,3.6-0.5c2.2,0,4.1,0.4,5.7,1.2c1.6,0.8,2.7,1.7,3.5,2.8L350.4,272.8z"/>
		<path class="st4" d="M377.7,300.2h-3.3v-32.6h3.3V300.2z"/>
		<path class="st4" d="M424.9,273.5c-1.1-1.2-2.5-2.1-4-2.8c-1.6-0.7-3.4-1-5.4-1c-2.1,0-4,0.4-5.6,1.1c-1.7,0.8-3.1,1.8-4.3,3.1
			c-1.2,1.3-2.1,2.8-2.7,4.5c-0.6,1.7-0.9,3.5-0.9,5.4c0,1.9,0.3,3.7,0.9,5.4c0.6,1.7,1.5,3.2,2.7,4.5c1.2,1.3,2.6,2.3,4.3,3.1
			c1.7,0.8,3.6,1.1,5.6,1.1c1.8,0,3.5-0.2,5.1-0.6c1.5-0.4,2.8-0.9,3.7-1.5V286h-7.6v-2.9h10.9v14.7c-1.8,1.1-3.7,1.9-5.8,2.4
			c-2.1,0.5-4.2,0.8-6.4,0.8c-2.5,0-4.7-0.4-6.8-1.3c-2.1-0.9-3.9-2-5.4-3.6c-1.5-1.5-2.7-3.3-3.5-5.4c-0.8-2.1-1.3-4.4-1.3-6.9
			s0.4-4.8,1.3-6.9c0.9-2.1,2-3.9,3.6-5.4c1.5-1.5,3.3-2.7,5.4-3.6c2.1-0.9,4.3-1.3,6.7-1.3c2.6,0,4.9,0.4,6.8,1.2
			c1.9,0.8,3.6,1.9,5,3.2L424.9,273.5z"/>
		<path class="st4" d="M472.9,295.3L472.9,295.3l0.1-27.8h3.3v32.6h-4.1l-19-28h-0.1v28h-3.3v-32.6h4.1L472.9,295.3z"/>
	</g>
</g>
</svg>
